<?xml version="1.0" encoding="utf-8"?>
<svg xmlns="http://www.w3.org/2000/svg" xmlns:xlink="http://www.w3.org/1999/xlink" width="500" height="500" viewBox="0 0 2000 2000">
<defs>
  <clipPath id="clip4500">
    <rect x="0" y="0" width="2000" height="2000"/>
  </clipPath>
</defs>
<polyline clip-path="url(#clip4500)" style="stroke:#ededed; stroke-width:4; stroke-opacity:1; fill:none" points="
  400,1460 1800,1460 
  "/>
<polyline clip-path="url(#clip4500)" style="stroke:#ededed; stroke-width:4; stroke-opacity:1; fill:none" points="
  400,1250 1800,1250 
  "/>
<polyline clip-path="url(#clip4500)" style="stroke:#ededed; stroke-width:4; stroke-opacity:1; fill:none" points="
  400,1040 1800,1040 
  "/>
<polyline clip-path="url(#clip4500)" style="stroke:#ededed; stroke-width:4; stroke-opacity:1; fill:none" points="
  400,830 1800,830 
  "/>
<polyline clip-path="url(#clip4500)" style="stroke:#ededed; stroke-width:4; stroke-opacity:1; fill:none" points="
  400,620 1800,620 
  "/>
<polyline clip-path="url(#clip4500)" style="stroke:#ededed; stroke-width:4; stroke-opacity:1; fill:none" points="
  400,410 1800,410 
  "/>
<polyline clip-path="url(#clip4500)" style="stroke:#ededed; stroke-width:4; stroke-opacity:1; fill:none" points="
  400,200 1800,200 
  "/>
<polyline clip-path="url(#clip4500)" style="stroke:#ededed; stroke-width:4; stroke-opacity:1; fill:none" points="
  400,1600 400,200 
  "/>
<polyline clip-path="url(#clip4500)" style="stroke:#ededed; stroke-width:4; stroke-opacity:1; fill:none" points="
  540,1600 540,200 
  "/>
<polyline clip-path="url(#clip4500)" style="stroke:#ededed; stroke-width:4; stroke-opacity:1; fill:none" points="
  680,1600 680,200 
  "/>
<polyline clip-path="url(#clip4500)" style="stroke:#ededed; stroke-width:4; stroke-opacity:1; fill:none" points="
  820,1600 820,200 
  "/>
<polyline clip-path="url(#clip4500)" style="stroke:#ededed; stroke-width:4; stroke-opacity:1; fill:none" points="
  960,1600 960,200 
  "/>
<polyline clip-path="url(#clip4500)" style="stroke:#ededed; stroke-width:4; stroke-opacity:1; fill:none" points="
  1100,1600 1100,200 
  "/>
<polyline clip-path="url(#clip4500)" style="stroke:#ededed; stroke-width:4; stroke-opacity:1; fill:none" points="
  1240,1600 1240,200 
  "/>
<polyline clip-path="url(#clip4500)" style="stroke:#ededed; stroke-width:4; stroke-opacity:1; fill:none" points="
  1380,1600 1380,200 
  "/>
<polyline clip-path="url(#clip4500)" style="stroke:#ededed; stroke-width:4; stroke-opacity:1; fill:none" points="
  1520,1600 1520,200 
  "/>
<polyline clip-path="url(#clip4500)" style="stroke:#ededed; stroke-width:4; stroke-opacity:1; fill:none" points="
  1660,1600 1660,200 
  "/>
<polyline clip-path="url(#clip4500)" style="stroke:#ededed; stroke-width:4; stroke-opacity:1; fill:none" points="
  1800,1600 1800,200 
  "/>
<defs>
  <clipPath id="clip4501">
    <rect x="400" y="200" width="1401" height="1401"/>
  </clipPath>
</defs>
<g clip-path="url(#clip4500)">
<text style="fill:#000000; fill-opacity:1; font-family:Arial,Helvetica Neue,Helvetica,sans-serif; font-size:74px; text-anchor:start;" transform="rotate(0, 891.538, 1481.33)" x="891.538" y="1481.33">-</text>
</g>
<g clip-path="url(#clip4500)">
<text style="fill:#000000; fill-opacity:1; font-family:Arial,Helvetica Neue,Helvetica,sans-serif; font-size:74px; text-anchor:start;" transform="rotate(0, 935.46, 1481.33)" x="935.46" y="1481.33">0.6</text>
</g>
<g clip-path="url(#clip4500)">
<text style="fill:#000000; fill-opacity:1; font-family:Arial,Helvetica Neue,Helvetica,sans-serif; font-size:74px; text-anchor:start;" transform="rotate(0, 935.46, 1061.33)" x="935.46" y="1061.33">0.6</text>
</g>
<g clip-path="url(#clip4500)">
<text style="fill:#000000; fill-opacity:1; font-family:Arial,Helvetica Neue,Helvetica,sans-serif; font-size:74px; text-anchor:start;" transform="rotate(0, 935.46, 851.33)" x="935.46" y="851.33">1.2</text>
</g>
<g clip-path="url(#clip4500)">
<text style="fill:#000000; fill-opacity:1; font-family:Arial,Helvetica Neue,Helvetica,sans-serif; font-size:74px; text-anchor:start;" transform="rotate(0, 935.46, 641.33)" x="935.46" y="641.33">1.8</text>
</g>
<g clip-path="url(#clip4500)">
<text style="fill:#000000; fill-opacity:1; font-family:Arial,Helvetica Neue,Helvetica,sans-serif; font-size:74px; text-anchor:start;" transform="rotate(0, 935.46, 431.33)" x="935.46" y="431.33">2.4</text>
</g>
<g clip-path="url(#clip4500)">
<text style="fill:#000000; fill-opacity:1; font-family:Arial,Helvetica Neue,Helvetica,sans-serif; font-size:74px; text-anchor:start;" transform="rotate(0, 935.46, 221.33)" x="935.46" y="221.33">3.0</text>
</g>
<polyline clip-path="url(#clip4500)" style="stroke:#000000; stroke-width:4; stroke-opacity:1; fill:none" points="
  1100,1600 1100,1460 1060,1460 1100,1460 1100,1250 1060,1250 1100,1250 1100,1040 1060,1040 1100,1040 
  1100,830 1060,830 1100,830 1100,620 1060,620 1100,620 1100,410 1060,410 1100,410 1100,200 
  1060,200 1100,200 
  "/>
<g clip-path="url(#clip4500)">
<text style="fill:#000000; fill-opacity:1; font-family:Arial,Helvetica Neue,Helvetica,sans-serif; font-size:74px; text-anchor:start;" transform="rotate(0, 325.769, 1376.96)" x="325.769" y="1376.96">-</text>
</g>
<g clip-path="url(#clip4500)">
<text style="fill:#000000; fill-opacity:1; font-family:Arial,Helvetica Neue,Helvetica,sans-serif; font-size:74px; text-anchor:start;" transform="rotate(0, 369.691, 1376.96)" x="369.691" y="1376.96">1.0</text>
</g>
<g clip-path="url(#clip4500)">
<text style="fill:#000000; fill-opacity:1; font-family:Arial,Helvetica Neue,Helvetica,sans-serif; font-size:74px; text-anchor:start;" transform="rotate(0, 465.769, 1376.96)" x="465.769" y="1376.96">-</text>
</g>
<g clip-path="url(#clip4500)">
<text style="fill:#000000; fill-opacity:1; font-family:Arial,Helvetica Neue,Helvetica,sans-serif; font-size:74px; text-anchor:start;" transform="rotate(0, 509.691, 1376.96)" x="509.691" y="1376.96">0.8</text>
</g>
<g clip-path="url(#clip4500)">
<text style="fill:#000000; fill-opacity:1; font-family:Arial,Helvetica Neue,Helvetica,sans-serif; font-size:74px; text-anchor:start;" transform="rotate(0, 605.769, 1376.96)" x="605.769" y="1376.96">-</text>
</g>
<g clip-path="url(#clip4500)">
<text style="fill:#000000; fill-opacity:1; font-family:Arial,Helvetica Neue,Helvetica,sans-serif; font-size:74px; text-anchor:start;" transform="rotate(0, 649.691, 1376.96)" x="649.691" y="1376.96">0.6</text>
</g>
<g clip-path="url(#clip4500)">
<text style="fill:#000000; fill-opacity:1; font-family:Arial,Helvetica Neue,Helvetica,sans-serif; font-size:74px; text-anchor:start;" transform="rotate(0, 745.769, 1376.96)" x="745.769" y="1376.96">-</text>
</g>
<g clip-path="url(#clip4500)">
<text style="fill:#000000; fill-opacity:1; font-family:Arial,Helvetica Neue,Helvetica,sans-serif; font-size:74px; text-anchor:start;" transform="rotate(0, 789.691, 1376.96)" x="789.691" y="1376.96">0.4</text>
</g>
<g clip-path="url(#clip4500)">
<text style="fill:#000000; fill-opacity:1; font-family:Arial,Helvetica Neue,Helvetica,sans-serif; font-size:74px; text-anchor:start;" transform="rotate(0, 885.769, 1376.96)" x="885.769" y="1376.96">-</text>
</g>
<g clip-path="url(#clip4500)">
<text style="fill:#000000; fill-opacity:1; font-family:Arial,Helvetica Neue,Helvetica,sans-serif; font-size:74px; text-anchor:start;" transform="rotate(0, 929.691, 1376.96)" x="929.691" y="1376.96">0.2</text>
</g>
<g clip-path="url(#clip4500)">
<text style="fill:#000000; fill-opacity:1; font-family:Arial,Helvetica Neue,Helvetica,sans-serif; font-size:74px; text-anchor:start;" transform="rotate(0, 1187.73, 1376.96)" x="1187.73" y="1376.96">0.2</text>
</g>
<g clip-path="url(#clip4500)">
<text style="fill:#000000; fill-opacity:1; font-family:Arial,Helvetica Neue,Helvetica,sans-serif; font-size:74px; text-anchor:start;" transform="rotate(0, 1327.73, 1376.96)" x="1327.73" y="1376.96">0.4</text>
</g>
<g clip-path="url(#clip4500)">
<text style="fill:#000000; fill-opacity:1; font-family:Arial,Helvetica Neue,Helvetica,sans-serif; font-size:74px; text-anchor:start;" transform="rotate(0, 1467.73, 1376.96)" x="1467.73" y="1376.96">0.6</text>
</g>
<g clip-path="url(#clip4500)">
<text style="fill:#000000; fill-opacity:1; font-family:Arial,Helvetica Neue,Helvetica,sans-serif; font-size:74px; text-anchor:start;" transform="rotate(0, 1607.73, 1376.96)" x="1607.73" y="1376.96">0.8</text>
</g>
<g clip-path="url(#clip4500)">
<text style="fill:#000000; fill-opacity:1; font-family:Arial,Helvetica Neue,Helvetica,sans-serif; font-size:74px; text-anchor:start;" transform="rotate(0, 1747.73, 1376.96)" x="1747.73" y="1376.96">1.0</text>
</g>
<polyline clip-path="url(#clip4500)" style="stroke:#000000; stroke-width:4; stroke-opacity:1; fill:none" points="
  400,1250 400,1250 400,1290 400,1250 540,1250 540,1290 540,1250 680,1250 680,1290 680,1250 
  820,1250 820,1290 820,1250 960,1250 960,1290 960,1250 1100,1250 1100,1290 1100,1250 1240,1250 
  1240,1290 1240,1250 1380,1250 1380,1290 1380,1250 1520,1250 1520,1290 1520,1250 1660,1250 1660,1290 
  1660,1250 1800,1250 1800,1290 1800,1250 
  "/>
<polyline clip-path="url(#clip4501)" style="stroke:#000000; stroke-width:4; stroke-opacity:1; fill:none" points="
  1100,1145 1240,1075 1380,1110 1520,1180 1660,1040 1800,1005 
  "/>
<polyline clip-path="url(#clip4501)" style="stroke:#ff0000; stroke-width:4; stroke-opacity:1; fill:none" points="
  890,1180 1240,970 1345,1390 1520,1110 1660,410 1695,795 
  "/>
</svg>
